<svg width="277" height="69" viewBox="0 0 277 69" fill="none" xmlns="http://www.w3.org/2000/svg">
<mask id="path-1-outside-1_20_89" maskUnits="userSpaceOnUse" x="0" y="0" width="277" height="69" fill="black">
<rect fill="white" width="277" height="69"/>
<path d="M40.648 27.704C40.648 32.824 39.6667 37.112 37.704 40.568C35.7413 44.024 32.8827 46.6267 29.128 48.376C25.416 50.1253 20.936 51 15.688 51H2.76V5.304H17.096C21.8747 5.304 26.0133 6.15733 29.512 7.864C33.0533 9.57067 35.784 12.088 37.704 15.416C39.6667 18.7013 40.648 22.7973 40.648 27.704ZM30.6 27.96C30.6 24.5893 30.1093 21.816 29.128 19.64C28.1467 17.464 26.6747 15.864 24.712 14.84C22.792 13.7733 20.424 13.24 17.608 13.24H12.424V43H16.584C21.32 43 24.84 41.7413 27.144 39.224C29.448 36.7067 30.6 32.952 30.6 27.96ZM81.111 33.464C81.111 36.3653 80.7057 38.9467 79.895 41.208C79.127 43.4693 77.9963 45.3893 76.503 46.968C75.0523 48.504 73.2817 49.6773 71.191 50.488C69.1003 51.256 66.7323 51.64 64.087 51.64C61.655 51.64 59.3937 51.256 57.303 50.488C55.255 49.6773 53.4843 48.504 51.991 46.968C50.4977 45.3893 49.3243 43.4693 48.471 41.208C47.6603 38.9467 47.255 36.3653 47.255 33.464C47.255 29.5813 47.9377 26.3173 49.303 23.672C50.6683 20.984 52.631 18.936 55.191 17.528C57.751 16.12 60.7803 15.416 64.279 15.416C67.5643 15.416 70.4657 16.12 72.983 17.528C75.5003 18.936 77.4843 20.984 78.935 23.672C80.3857 26.3173 81.111 29.5813 81.111 33.464ZM56.983 33.464C56.983 35.768 57.2177 37.7093 57.687 39.288C58.199 40.824 58.9883 41.9973 60.055 42.808C61.1217 43.576 62.5083 43.96 64.215 43.96C65.9217 43.96 67.287 43.576 68.311 42.808C69.3777 41.9973 70.1457 40.824 70.615 39.288C71.127 37.7093 71.383 35.768 71.383 33.464C71.383 31.16 71.127 29.24 70.615 27.704C70.1457 26.168 69.3777 25.016 68.311 24.248C67.2443 23.48 65.8577 23.096 64.151 23.096C61.6337 23.096 59.799 23.9707 58.647 25.72C57.5377 27.4267 56.983 30.008 56.983 33.464ZM103.392 15.416C106.635 15.416 109.408 16.0347 111.712 17.272C114.059 18.5093 115.872 20.3013 117.152 22.648C118.432 24.9947 119.072 27.8747 119.072 31.288V35.896H96.544C96.6293 38.584 97.4187 40.696 98.912 42.232C100.448 43.768 102.56 44.536 105.248 44.536C107.509 44.536 109.557 44.3227 111.392 43.896C113.227 43.4267 115.125 42.7227 117.088 41.784V49.144C115.381 49.9973 113.568 50.616 111.648 51C109.771 51.4267 107.488 51.64 104.8 51.64C101.301 51.64 98.208 51 95.52 49.72C92.832 48.3973 90.72 46.4133 89.184 43.768C87.648 41.1227 86.88 37.7947 86.88 33.784C86.88 29.688 87.5627 26.296 88.928 23.608C90.336 20.8773 92.2773 18.8293 94.752 17.464C97.2267 16.0987 100.107 15.416 103.392 15.416ZM103.456 22.2C101.621 22.2 100.085 22.7973 98.848 23.992C97.6533 25.1867 96.9493 27.0427 96.736 29.56H110.112C110.112 28.152 109.856 26.8933 109.344 25.784C108.875 24.6747 108.149 23.8 107.168 23.16C106.187 22.52 104.949 22.2 103.456 22.2ZM157.766 15.352C162.459 15.352 166.043 16.376 168.518 18.424C171.035 20.4293 172.294 23.5227 172.294 27.704V51H165.638L163.782 46.264H163.526C162.544 47.5013 161.52 48.5253 160.454 49.336C159.43 50.1467 158.235 50.7227 156.87 51.064C155.547 51.448 153.904 51.64 151.942 51.64C149.894 51.64 148.038 51.256 146.374 50.488C144.752 49.6773 143.472 48.4613 142.534 46.84C141.595 45.176 141.126 43.0853 141.126 40.568C141.126 36.856 142.427 34.1253 145.03 32.376C147.632 30.584 151.536 29.6027 156.742 29.432L162.822 29.24V27.704C162.822 25.8693 162.331 24.5253 161.35 23.672C160.411 22.8187 159.088 22.392 157.382 22.392C155.675 22.392 154.011 22.648 152.39 23.16C150.768 23.6293 149.147 24.2267 147.526 24.952L144.39 18.488C146.267 17.5067 148.336 16.7387 150.598 16.184C152.902 15.6293 155.291 15.352 157.766 15.352ZM159.11 34.936C156.038 35.0213 153.904 35.576 152.71 36.6C151.515 37.624 150.918 38.968 150.918 40.632C150.918 42.0827 151.344 43.128 152.198 43.768C153.051 44.3653 154.16 44.664 155.526 44.664C157.574 44.664 159.302 44.0667 160.71 42.872C162.118 41.6347 162.822 39.9067 162.822 37.688V34.808L159.11 34.936ZM203.047 51.704C203.047 50.8507 203.068 49.976 203.111 49.08C203.196 48.184 203.303 47.3093 203.431 46.456H203.047C202.151 47.9067 200.913 49.144 199.335 50.168C197.756 51.1493 195.687 51.64 193.127 51.64C189.201 51.64 186.023 50.1253 183.591 47.096C181.159 44.024 179.943 39.5227 179.943 33.592C179.943 29.624 180.497 26.296 181.607 23.608C182.759 20.8773 184.337 18.8293 186.343 17.464C188.348 16.0987 190.673 15.416 193.319 15.416C195.879 15.416 197.948 15.9067 199.527 16.888C201.148 17.8693 202.449 19.0853 203.431 20.536H203.687L204.519 16.056H212.583V66.36H203.047V51.704ZM196.519 44.152C198.268 44.152 199.655 43.8107 200.679 43.128C201.703 42.4453 202.449 41.4213 202.919 40.056C203.388 38.648 203.644 36.8987 203.687 34.808V33.656C203.687 30.2427 203.153 27.64 202.087 25.848C201.063 24.056 199.164 23.16 196.391 23.16C194.129 23.16 192.444 24.0773 191.335 25.912C190.225 27.704 189.671 30.3067 189.671 33.72C189.671 37.2187 190.225 39.8427 191.335 41.592C192.444 43.2987 194.172 44.152 196.519 44.152ZM254.619 16.056V51H247.323L246.043 46.52H245.531C244.805 47.7147 243.867 48.696 242.715 49.464C241.605 50.1893 240.368 50.7227 239.003 51.064C237.637 51.448 236.229 51.64 234.779 51.64C232.304 51.64 230.128 51.192 228.251 50.296C226.373 49.4 224.923 48.0133 223.899 46.136C222.875 44.2587 222.363 41.8267 222.363 38.84V16.056H231.899V36.472C231.899 38.9467 232.347 40.824 233.243 42.104C234.139 43.384 235.568 44.024 237.531 44.024C239.493 44.024 241.008 43.576 242.075 42.68C243.184 41.784 243.952 40.4827 244.379 38.776C244.848 37.0693 245.083 34.9787 245.083 32.504V16.056H254.619ZM274.153 16.056V51H264.617V16.056H274.153ZM269.417 2.36C270.825 2.36 272.041 2.70133 273.065 3.384C274.089 4.024 274.601 5.24 274.601 7.032C274.601 8.78133 274.089 9.99733 273.065 10.68C272.041 11.3627 270.825 11.704 269.417 11.704C267.966 11.704 266.729 11.3627 265.705 10.68C264.724 9.99733 264.233 8.78133 264.233 7.032C264.233 5.24 264.724 4.024 265.705 3.384C266.729 2.70133 267.966 2.36 269.417 2.36Z"/>
</mask>
<path d="M40.648 27.704C40.648 32.824 39.6667 37.112 37.704 40.568C35.7413 44.024 32.8827 46.6267 29.128 48.376C25.416 50.1253 20.936 51 15.688 51H2.76V5.304H17.096C21.8747 5.304 26.0133 6.15733 29.512 7.864C33.0533 9.57067 35.784 12.088 37.704 15.416C39.6667 18.7013 40.648 22.7973 40.648 27.704ZM30.6 27.96C30.6 24.5893 30.1093 21.816 29.128 19.64C28.1467 17.464 26.6747 15.864 24.712 14.84C22.792 13.7733 20.424 13.24 17.608 13.24H12.424V43H16.584C21.32 43 24.84 41.7413 27.144 39.224C29.448 36.7067 30.6 32.952 30.6 27.96ZM81.111 33.464C81.111 36.3653 80.7057 38.9467 79.895 41.208C79.127 43.4693 77.9963 45.3893 76.503 46.968C75.0523 48.504 73.2817 49.6773 71.191 50.488C69.1003 51.256 66.7323 51.64 64.087 51.64C61.655 51.64 59.3937 51.256 57.303 50.488C55.255 49.6773 53.4843 48.504 51.991 46.968C50.4977 45.3893 49.3243 43.4693 48.471 41.208C47.6603 38.9467 47.255 36.3653 47.255 33.464C47.255 29.5813 47.9377 26.3173 49.303 23.672C50.6683 20.984 52.631 18.936 55.191 17.528C57.751 16.12 60.7803 15.416 64.279 15.416C67.5643 15.416 70.4657 16.12 72.983 17.528C75.5003 18.936 77.4843 20.984 78.935 23.672C80.3857 26.3173 81.111 29.5813 81.111 33.464ZM56.983 33.464C56.983 35.768 57.2177 37.7093 57.687 39.288C58.199 40.824 58.9883 41.9973 60.055 42.808C61.1217 43.576 62.5083 43.96 64.215 43.96C65.9217 43.96 67.287 43.576 68.311 42.808C69.3777 41.9973 70.1457 40.824 70.615 39.288C71.127 37.7093 71.383 35.768 71.383 33.464C71.383 31.16 71.127 29.24 70.615 27.704C70.1457 26.168 69.3777 25.016 68.311 24.248C67.2443 23.48 65.8577 23.096 64.151 23.096C61.6337 23.096 59.799 23.9707 58.647 25.72C57.5377 27.4267 56.983 30.008 56.983 33.464ZM103.392 15.416C106.635 15.416 109.408 16.0347 111.712 17.272C114.059 18.5093 115.872 20.3013 117.152 22.648C118.432 24.9947 119.072 27.8747 119.072 31.288V35.896H96.544C96.6293 38.584 97.4187 40.696 98.912 42.232C100.448 43.768 102.56 44.536 105.248 44.536C107.509 44.536 109.557 44.3227 111.392 43.896C113.227 43.4267 115.125 42.7227 117.088 41.784V49.144C115.381 49.9973 113.568 50.616 111.648 51C109.771 51.4267 107.488 51.64 104.8 51.64C101.301 51.64 98.208 51 95.52 49.72C92.832 48.3973 90.72 46.4133 89.184 43.768C87.648 41.1227 86.88 37.7947 86.88 33.784C86.88 29.688 87.5627 26.296 88.928 23.608C90.336 20.8773 92.2773 18.8293 94.752 17.464C97.2267 16.0987 100.107 15.416 103.392 15.416ZM103.456 22.2C101.621 22.2 100.085 22.7973 98.848 23.992C97.6533 25.1867 96.9493 27.0427 96.736 29.56H110.112C110.112 28.152 109.856 26.8933 109.344 25.784C108.875 24.6747 108.149 23.8 107.168 23.16C106.187 22.52 104.949 22.2 103.456 22.2ZM157.766 15.352C162.459 15.352 166.043 16.376 168.518 18.424C171.035 20.4293 172.294 23.5227 172.294 27.704V51H165.638L163.782 46.264H163.526C162.544 47.5013 161.52 48.5253 160.454 49.336C159.43 50.1467 158.235 50.7227 156.87 51.064C155.547 51.448 153.904 51.64 151.942 51.64C149.894 51.64 148.038 51.256 146.374 50.488C144.752 49.6773 143.472 48.4613 142.534 46.84C141.595 45.176 141.126 43.0853 141.126 40.568C141.126 36.856 142.427 34.1253 145.03 32.376C147.632 30.584 151.536 29.6027 156.742 29.432L162.822 29.24V27.704C162.822 25.8693 162.331 24.5253 161.35 23.672C160.411 22.8187 159.088 22.392 157.382 22.392C155.675 22.392 154.011 22.648 152.39 23.16C150.768 23.6293 149.147 24.2267 147.526 24.952L144.39 18.488C146.267 17.5067 148.336 16.7387 150.598 16.184C152.902 15.6293 155.291 15.352 157.766 15.352ZM159.11 34.936C156.038 35.0213 153.904 35.576 152.71 36.6C151.515 37.624 150.918 38.968 150.918 40.632C150.918 42.0827 151.344 43.128 152.198 43.768C153.051 44.3653 154.16 44.664 155.526 44.664C157.574 44.664 159.302 44.0667 160.71 42.872C162.118 41.6347 162.822 39.9067 162.822 37.688V34.808L159.11 34.936ZM203.047 51.704C203.047 50.8507 203.068 49.976 203.111 49.08C203.196 48.184 203.303 47.3093 203.431 46.456H203.047C202.151 47.9067 200.913 49.144 199.335 50.168C197.756 51.1493 195.687 51.64 193.127 51.64C189.201 51.64 186.023 50.1253 183.591 47.096C181.159 44.024 179.943 39.5227 179.943 33.592C179.943 29.624 180.497 26.296 181.607 23.608C182.759 20.8773 184.337 18.8293 186.343 17.464C188.348 16.0987 190.673 15.416 193.319 15.416C195.879 15.416 197.948 15.9067 199.527 16.888C201.148 17.8693 202.449 19.0853 203.431 20.536H203.687L204.519 16.056H212.583V66.36H203.047V51.704ZM196.519 44.152C198.268 44.152 199.655 43.8107 200.679 43.128C201.703 42.4453 202.449 41.4213 202.919 40.056C203.388 38.648 203.644 36.8987 203.687 34.808V33.656C203.687 30.2427 203.153 27.64 202.087 25.848C201.063 24.056 199.164 23.16 196.391 23.16C194.129 23.16 192.444 24.0773 191.335 25.912C190.225 27.704 189.671 30.3067 189.671 33.72C189.671 37.2187 190.225 39.8427 191.335 41.592C192.444 43.2987 194.172 44.152 196.519 44.152ZM254.619 16.056V51H247.323L246.043 46.52H245.531C244.805 47.7147 243.867 48.696 242.715 49.464C241.605 50.1893 240.368 50.7227 239.003 51.064C237.637 51.448 236.229 51.64 234.779 51.64C232.304 51.64 230.128 51.192 228.251 50.296C226.373 49.4 224.923 48.0133 223.899 46.136C222.875 44.2587 222.363 41.8267 222.363 38.84V16.056H231.899V36.472C231.899 38.9467 232.347 40.824 233.243 42.104C234.139 43.384 235.568 44.024 237.531 44.024C239.493 44.024 241.008 43.576 242.075 42.68C243.184 41.784 243.952 40.4827 244.379 38.776C244.848 37.0693 245.083 34.9787 245.083 32.504V16.056H254.619ZM274.153 16.056V51H264.617V16.056H274.153ZM269.417 2.36C270.825 2.36 272.041 2.70133 273.065 3.384C274.089 4.024 274.601 5.24 274.601 7.032C274.601 8.78133 274.089 9.99733 273.065 10.68C272.041 11.3627 270.825 11.704 269.417 11.704C267.966 11.704 266.729 11.3627 265.705 10.68C264.724 9.99733 264.233 8.78133 264.233 7.032C264.233 5.24 264.724 4.024 265.705 3.384C266.729 2.70133 267.966 2.36 269.417 2.36Z" fill="#FF9500"/>
<path d="M37.704 40.568L39.4431 41.5556L37.704 40.568ZM29.128 48.376L28.2834 46.5631L28.2754 46.5668L29.128 48.376ZM2.76 51H0.76V53H2.76V51ZM2.76 5.304V3.304H0.76V5.304H2.76ZM29.512 7.864L28.6351 9.66156L28.6437 9.66569L29.512 7.864ZM37.704 15.416L35.9716 16.4154L35.9792 16.4286L35.9871 16.4417L37.704 15.416ZM24.712 14.84L23.7407 16.5883L23.7636 16.601L23.7869 16.6132L24.712 14.84ZM12.424 13.24V11.24H10.424V13.24H12.424ZM12.424 43H10.424V45H12.424V43ZM27.144 39.224L25.6687 37.8737L27.144 39.224ZM38.648 27.704C38.648 32.5752 37.7141 36.5002 35.9649 39.5803L39.4431 41.5556C41.6192 37.7238 42.648 33.0728 42.648 27.704H38.648ZM35.9649 39.5803C34.2164 42.6591 31.6783 44.9814 28.2834 46.5631L29.9726 50.1889C34.087 48.272 37.2662 45.3889 39.4431 41.5556L35.9649 39.5803ZM28.2754 46.5668C24.8936 48.1606 20.7206 49 15.688 49V53C21.1514 53 25.9384 52.0901 29.9806 50.1852L28.2754 46.5668ZM15.688 49H2.76V53H15.688V49ZM4.76 51V5.304H0.76V51H4.76ZM2.76 7.304H17.096V3.304H2.76V7.304ZM17.096 7.304C21.6386 7.304 25.4646 8.11494 28.6352 9.66154L30.3888 6.06646C26.562 4.19972 22.1107 3.304 17.096 3.304V7.304ZM28.6437 9.66569C31.8319 11.2022 34.2574 13.4441 35.9716 16.4154L39.4364 14.4165C37.3106 10.7319 34.2748 7.93918 30.3803 6.06231L28.6437 9.66569ZM35.9871 16.4417C37.7191 19.341 38.648 23.0584 38.648 27.704H42.648C42.648 22.5363 41.6142 18.0617 39.421 14.3903L35.9871 16.4417ZM32.6 27.96C32.6 24.4145 32.0867 21.3357 30.9512 18.8178L27.3048 20.4622C28.132 22.2963 28.6 24.7641 28.6 27.96H32.6ZM30.9512 18.8178C29.8009 16.2673 28.0293 14.3149 25.6371 13.0668L23.7869 16.6132C25.3201 17.4131 26.4924 18.6607 27.3048 20.4622L30.9512 18.8178ZM25.6833 13.0917C23.3938 11.8198 20.6702 11.24 17.608 11.24V15.24C20.1778 15.24 22.1902 15.7269 23.7407 16.5883L25.6833 13.0917ZM17.608 11.24H12.424V15.24H17.608V11.24ZM10.424 13.24V43H14.424V13.24H10.424ZM12.424 45H16.584V41H12.424V45ZM16.584 45C21.6564 45 25.8075 43.6465 28.6193 40.5743L25.6687 37.8737C23.8725 39.8362 20.9836 41 16.584 41V45ZM28.6193 40.5743C31.3883 37.549 32.6 33.224 32.6 27.96H28.6C28.6 32.68 27.5077 35.8643 25.6687 37.8737L28.6193 40.5743ZM79.895 41.208L78.0123 40.5331L78.0066 40.5489L78.0012 40.5648L79.895 41.208ZM76.503 46.968L75.0501 45.5936L75.049 45.5947L76.503 46.968ZM71.191 50.488L71.8806 52.3653L71.8974 52.3592L71.9141 52.3527L71.191 50.488ZM57.303 50.488L56.5669 52.3476L56.59 52.3568L56.6134 52.3653L57.303 50.488ZM51.991 46.968L50.5381 48.3424L50.5475 48.3523L50.557 48.3622L51.991 46.968ZM48.471 41.208L46.5883 41.8829L46.5939 41.8986L46.5998 41.9141L48.471 41.208ZM49.303 23.672L51.0803 24.5893L51.0862 24.5777L49.303 23.672ZM55.191 17.528L56.1548 19.2804V19.2804L55.191 17.528ZM72.983 17.528L72.0067 19.2735V19.2735L72.983 17.528ZM78.935 23.672L77.1749 24.6219L77.1814 24.6337L78.935 23.672ZM57.687 39.288L55.7699 39.8579L55.7793 39.8894L55.7896 39.9205L57.687 39.288ZM60.055 42.808L58.8448 44.4003L58.8654 44.416L58.8864 44.4311L60.055 42.808ZM68.311 42.808L69.511 44.408L69.5212 44.4003L68.311 42.808ZM70.615 39.288L68.7126 38.671L68.7073 38.6872L68.7023 38.7036L70.615 39.288ZM70.615 27.704L68.7023 28.2884L68.7097 28.3125L68.7176 28.3365L70.615 27.704ZM58.647 25.72L56.9766 24.62L56.9701 24.63L58.647 25.72ZM79.111 33.464C79.111 36.1816 78.7311 38.528 78.0123 40.5331L81.7777 41.8829C82.6802 39.3653 83.111 36.549 83.111 33.464H79.111ZM78.0012 40.5648C77.3166 42.5808 76.3267 44.2441 75.0501 45.5936L77.9559 48.3424C79.666 46.5346 80.9374 44.3579 81.7888 41.8512L78.0012 40.5648ZM75.049 45.5947C73.8148 46.9015 72.2988 47.9133 70.4679 48.6233L71.9141 52.3527C74.2645 51.4413 76.2898 50.1065 77.957 48.3412L75.049 45.5947ZM70.5014 48.6107C68.6687 49.2839 66.5401 49.64 64.087 49.64V53.64C66.9245 53.64 69.532 53.2281 71.8806 52.3653L70.5014 48.6107ZM64.087 49.64C61.8687 49.64 59.843 49.2904 57.9926 48.6107L56.6134 52.3653C58.9443 53.2216 61.4413 53.64 64.087 53.64V49.64ZM58.0391 48.6284C56.2464 47.9188 54.7156 46.9013 53.425 45.5738L50.557 48.3622C52.2531 50.1067 54.2636 51.4359 56.5669 52.3476L58.0391 48.6284ZM53.4439 45.5936C52.1524 44.2283 51.1124 42.5428 50.3422 40.5019L46.5998 41.9141C47.5363 44.3958 48.8429 46.5504 50.5381 48.3424L53.4439 45.5936ZM50.3537 40.5331C49.6349 38.528 49.255 36.1816 49.255 33.464H45.255C45.255 36.549 45.6858 39.3653 46.5883 41.8829L50.3537 40.5331ZM49.255 33.464C49.255 29.8067 49.899 26.878 51.0802 24.5893L47.5258 22.7547C45.9764 25.7567 45.255 29.3559 45.255 33.464H49.255ZM51.0862 24.5777C52.2758 22.2357 53.9585 20.4884 56.1548 19.2804L54.2272 15.7756C51.3035 17.3836 49.0609 19.7323 47.5198 22.7663L51.0862 24.5777ZM56.1548 19.2804C58.3664 18.0641 61.0509 17.416 64.279 17.416V13.416C60.5097 13.416 57.1356 14.1759 54.2272 15.7756L56.1548 19.2804ZM64.279 17.416C67.2707 17.416 69.8271 18.0544 72.0067 19.2735L73.9593 15.7825C71.1042 14.1856 67.858 13.416 64.279 13.416V17.416ZM72.0067 19.2735C74.1726 20.485 75.8935 22.2475 77.175 24.6219L80.695 22.7221C79.0751 19.7205 76.828 17.387 73.9593 15.7825L72.0067 19.2735ZM77.1814 24.6337C78.4305 26.9116 79.111 29.8235 79.111 33.464H83.111C83.111 29.3392 82.3408 25.7231 80.6886 22.7103L77.1814 24.6337ZM54.983 33.464C54.983 35.8904 55.2286 38.037 55.7699 39.8579L59.6041 38.7181C59.2068 37.3817 58.983 35.6456 58.983 33.464H54.983ZM55.7896 39.9205C56.402 41.7575 57.396 43.2992 58.8448 44.4003L61.2652 41.2157C60.5806 40.6954 59.996 39.8905 59.5844 38.6555L55.7896 39.9205ZM58.8864 44.4311C60.3824 45.5082 62.2138 45.96 64.215 45.96V41.96C62.8029 41.96 61.8609 41.6438 61.2236 41.1849L58.8864 44.4311ZM64.215 45.96C66.2112 45.96 68.0415 45.5101 69.511 44.408L67.111 41.208C66.5325 41.6419 65.6322 41.96 64.215 41.96V45.96ZM69.5212 44.4003C70.9841 43.2885 71.9607 41.7281 72.5277 39.8724L68.7023 38.7036C68.3306 39.9199 67.7712 40.7062 67.1008 41.2157L69.5212 44.4003ZM72.5174 39.905C73.1137 38.0664 73.383 35.9025 73.383 33.464H69.383C69.383 35.6335 69.1403 37.3522 68.7126 38.671L72.5174 39.905ZM73.383 33.464C73.383 31.0282 73.1144 28.8777 72.5124 27.0715L68.7176 28.3365C69.1396 29.6023 69.383 31.2918 69.383 33.464H73.383ZM72.5277 27.1196C71.9596 25.2604 70.9742 23.701 69.4796 22.6249L67.1424 25.8711C67.7811 26.331 68.3317 27.0756 68.7023 28.2884L72.5277 27.1196ZM69.4796 22.6249C67.9836 21.5478 66.1522 21.096 64.151 21.096V25.096C65.5631 25.096 66.5051 25.4122 67.1424 25.8711L69.4796 22.6249ZM64.151 21.096C61.1172 21.096 58.5771 22.1898 56.9767 24.62L60.3173 26.82C61.0209 25.7516 62.1501 25.096 64.151 25.096V21.096ZM56.9701 24.63C55.549 26.8164 54.983 29.8612 54.983 33.464H58.983C58.983 30.1548 59.5264 28.037 60.3239 26.81L56.9701 24.63ZM111.712 17.272L110.766 19.034L110.772 19.0376L110.779 19.0411L111.712 17.272ZM117.152 22.648L115.396 23.6057V23.6057L117.152 22.648ZM119.072 35.896V37.896H121.072V35.896H119.072ZM96.544 35.896V33.896H94.4795L94.545 35.9595L96.544 35.896ZM98.912 42.232L97.478 43.6262L97.4878 43.6363L97.4978 43.6462L98.912 42.232ZM111.392 43.896L111.845 45.844L111.866 45.839L111.888 45.8336L111.392 43.896ZM117.088 41.784H119.088V38.6105L116.225 39.9797L117.088 41.784ZM117.088 49.144L117.982 50.9329L119.088 50.3801V49.144H117.088ZM111.648 51L111.256 49.0388L111.23 49.044L111.205 49.0497L111.648 51ZM95.52 49.72L94.637 51.5145L94.6485 51.5202L94.6601 51.5257L95.52 49.72ZM89.184 43.768L87.4544 44.7723L89.184 43.768ZM88.928 23.608L87.1504 22.6914L87.1448 22.7023L88.928 23.608ZM94.752 17.464L93.7858 15.7128L94.752 17.464ZM98.848 23.992L97.4588 22.5532L97.4462 22.5654L97.4338 22.5778L98.848 23.992ZM96.736 29.56L94.7431 29.3911L94.5593 31.56H96.736V29.56ZM110.112 29.56V31.56H112.112V29.56H110.112ZM109.344 25.784L107.502 26.5633L107.515 26.5929L107.528 26.6221L109.344 25.784ZM107.168 23.16L108.261 21.4848L107.168 23.16ZM103.392 17.416C106.382 17.416 108.814 17.9861 110.766 19.034L112.658 15.51C110.002 14.0833 106.887 13.416 103.392 13.416V17.416ZM110.779 19.0411C112.775 20.0934 114.303 21.6018 115.396 23.6057L118.908 21.6903C117.441 19.0009 115.342 16.9253 112.645 15.5029L110.779 19.0411ZM115.396 23.6057C116.478 25.5883 117.072 28.1188 117.072 31.288H121.072C121.072 27.6305 120.386 24.4011 118.908 21.6903L115.396 23.6057ZM117.072 31.288V35.896H121.072V31.288H117.072ZM119.072 33.896H96.544V37.896H119.072V33.896ZM94.545 35.9595C94.642 39.0135 95.5545 41.6477 97.478 43.6262L100.346 40.8378C99.2828 39.7443 98.6167 38.1545 98.543 35.8325L94.545 35.9595ZM97.4978 43.6462C99.4937 45.6422 102.163 46.536 105.248 46.536V42.536C102.957 42.536 101.402 41.8938 100.326 40.8178L97.4978 43.6462ZM105.248 46.536C107.632 46.536 109.836 46.3113 111.845 45.844L110.939 41.948C109.279 42.334 107.386 42.536 105.248 42.536V46.536ZM111.888 45.8336C113.866 45.3276 115.887 44.5751 117.951 43.5883L116.225 39.9797C114.363 40.8702 112.587 41.5258 110.896 41.9584L111.888 45.8336ZM115.088 41.784V49.144H119.088V41.784H115.088ZM116.194 47.3551C114.65 48.1269 113.006 48.6888 111.256 49.0388L112.04 52.9612C114.13 52.5432 116.113 51.8678 117.982 50.9329L116.194 47.3551ZM111.205 49.0497C109.517 49.4332 107.393 49.64 104.8 49.64V53.64C107.583 53.64 110.024 53.4201 112.091 52.9503L111.205 49.0497ZM104.8 49.64C101.547 49.64 98.7562 49.0459 96.3799 47.9143L94.6601 51.5257C97.6598 52.9541 101.056 53.64 104.8 53.64V49.64ZM96.403 47.9255C94.0768 46.7808 92.2559 45.0756 90.9136 42.7637L87.4544 44.7723C89.1841 47.7511 91.5872 50.0138 94.637 51.5145L96.403 47.9255ZM90.9136 42.7637C89.6016 40.5041 88.88 37.5487 88.88 33.784H84.88C84.88 38.0406 85.6944 41.7412 87.4544 44.7723L90.9136 42.7637ZM88.88 33.784C88.88 29.8954 89.5301 26.8389 90.7112 24.5137L87.1448 22.7023C85.5952 25.7531 84.88 29.4806 84.88 33.784H88.88ZM90.7056 24.5246C91.9484 22.1143 93.621 20.3722 95.7182 19.2152L93.7858 15.7128C90.9336 17.2865 88.7236 19.6403 87.1504 22.6914L90.7056 24.5246ZM95.7182 19.2152C97.8521 18.0378 100.389 17.416 103.392 17.416V13.416C99.824 13.416 96.6012 14.1595 93.7858 15.7128L95.7182 19.2152ZM103.456 20.2C101.141 20.2 99.0955 20.9729 97.4588 22.5532L100.237 25.4308C101.075 24.6218 102.102 24.2 103.456 24.2V20.2ZM97.4338 22.5778C95.7744 24.2371 94.9773 26.6284 94.7431 29.3911L98.7289 29.7289C98.9214 27.4569 99.5322 26.1362 100.262 25.4062L97.4338 22.5778ZM96.736 31.56H110.112V27.56H96.736V31.56ZM112.112 29.56C112.112 27.9066 111.81 26.3552 111.16 24.9459L107.528 26.6221C107.902 27.4315 108.112 28.3974 108.112 29.56H112.112ZM111.186 25.0047C110.566 23.5398 109.585 22.3486 108.261 21.4848L106.075 24.8352C106.714 25.2514 107.183 25.8096 107.502 26.5633L111.186 25.0047ZM108.261 21.4848C106.876 20.5816 105.231 20.2 103.456 20.2V24.2C104.667 24.2 105.498 24.4584 106.075 24.8352L108.261 21.4848ZM168.518 18.424L167.242 19.9648L167.257 19.9767L167.271 19.9883L168.518 18.424ZM172.294 51V53H174.294V51H172.294ZM165.637 51L163.775 51.7297L164.273 53H165.637V51ZM163.781 46.264L165.644 45.5343L165.146 44.264H163.781V46.264ZM163.525 46.264V44.264H162.559L161.959 45.0212L163.525 46.264ZM160.454 49.336L159.243 47.7437L159.228 47.7556L159.212 47.7679L160.454 49.336ZM156.87 51.064L156.384 49.1237L156.348 49.1328L156.312 49.1433L156.87 51.064ZM146.374 50.488L145.479 52.2769L145.507 52.2908L145.535 52.3039L146.374 50.488ZM142.533 46.84L140.792 47.8226L140.797 47.8324L140.803 47.8421L142.533 46.84ZM145.029 32.376L146.145 34.0359L146.154 34.0297L146.164 34.0233L145.029 32.376ZM156.742 29.432L156.678 27.433L156.676 27.4331L156.742 29.432ZM162.822 29.24L162.885 31.239L164.822 31.1778V29.24H162.822ZM161.35 23.672L160.004 25.1519L160.02 25.1667L160.037 25.1812L161.35 23.672ZM152.389 23.16L152.946 25.0811L152.969 25.0744L152.992 25.0672L152.389 23.16ZM147.525 24.952L145.726 25.825L146.572 27.5694L148.342 26.7776L147.525 24.952ZM144.389 18.488L143.463 16.7155L141.743 17.6147L142.59 19.361L144.389 18.488ZM150.598 16.184L150.129 14.2395L150.121 14.2416L150.598 16.184ZM159.109 34.936L159.165 36.9353L159.178 36.9348L159.109 34.936ZM152.71 36.6L151.408 35.0815L152.71 36.6ZM152.197 43.768L150.997 45.368L151.024 45.3877L151.051 45.4065L152.197 43.768ZM160.71 42.872L162.003 44.397L162.017 44.3858L162.03 44.3743L160.71 42.872ZM162.822 34.808H164.822V32.7378L162.753 32.8092L162.822 34.808ZM157.766 17.352C162.202 17.352 165.26 18.3239 167.242 19.9648L169.793 16.8832C166.826 14.4281 162.716 13.352 157.766 13.352V17.352ZM167.271 19.9883C169.177 21.5063 170.294 23.9344 170.294 27.704H174.294C174.294 23.1109 172.893 19.3524 169.764 16.8597L167.271 19.9883ZM170.294 27.704V51H174.294V27.704H170.294ZM172.294 49H165.637V53H172.294V49ZM167.5 50.2703L165.644 45.5343L161.919 46.9937L163.775 51.7297L167.5 50.2703ZM163.781 44.264H163.525V48.264H163.781V44.264ZM161.959 45.0212C161.063 46.1502 160.156 47.0503 159.243 47.7437L161.664 50.9283C162.885 50.0004 164.025 48.8525 165.092 47.5068L161.959 45.0212ZM159.212 47.7679C158.428 48.3888 157.496 48.8459 156.384 49.1237L157.355 53.0043C158.974 52.5995 160.431 51.9045 161.695 50.9041L159.212 47.7679ZM156.312 49.1433C155.229 49.4576 153.788 49.64 151.941 49.64V53.64C154.02 53.64 155.864 53.4384 157.427 52.9847L156.312 49.1433ZM151.941 49.64C150.149 49.64 148.583 49.3053 147.212 48.6721L145.535 52.3039C147.492 53.2067 149.638 53.64 151.941 53.64V49.64ZM147.268 48.6991C146.009 48.0694 145.014 47.1329 144.264 45.8379L140.803 47.8421C141.93 49.7898 143.496 51.2852 145.479 52.2769L147.268 48.6991ZM144.275 45.8574C143.551 44.5737 143.126 42.847 143.126 40.568H139.126C139.126 43.3237 139.638 45.7783 140.792 47.8226L144.275 45.8574ZM143.126 40.568C143.126 37.3811 144.203 35.3414 146.145 34.0359L143.914 30.7161C140.651 32.9093 139.126 36.3309 139.126 40.568H143.126ZM146.164 34.0233C148.307 32.5473 151.761 31.5964 156.807 31.4309L156.676 27.4331C151.311 27.609 146.957 28.6207 143.895 30.7287L146.164 34.0233ZM156.805 31.431L162.885 31.239L162.758 27.241L156.678 27.433L156.805 31.431ZM164.822 29.24V27.704H160.822V29.24H164.822ZM164.822 27.704C164.822 25.5366 164.237 23.5321 162.662 22.1628L160.037 25.1812C160.425 25.5185 160.822 26.2021 160.822 27.704H164.822ZM162.695 22.1921C161.277 20.9028 159.411 20.392 157.382 20.392V24.392C158.765 24.392 159.545 24.7345 160.004 25.1519L162.695 22.1921ZM157.382 20.392C155.471 20.392 153.604 20.6791 151.787 21.2528L152.992 25.0672C154.418 24.6169 155.878 24.392 157.382 24.392V20.392ZM151.833 21.2389C150.119 21.7353 148.41 22.3652 146.709 23.1264L148.342 26.7776C149.883 26.0882 151.418 25.5234 152.946 25.0811L151.833 21.2389ZM149.325 24.079L146.189 17.615L142.59 19.361L145.726 25.825L149.325 24.079ZM145.316 20.2604C147.037 19.3606 148.954 18.6465 151.074 18.1264L150.121 14.2416C147.719 14.8308 145.496 15.6527 143.463 16.7155L145.316 20.2604ZM151.066 18.1284C153.21 17.6123 155.442 17.352 157.766 17.352V13.352C155.14 13.352 152.593 13.6464 150.129 14.2396L151.066 18.1284ZM159.054 32.9368C155.897 33.0245 153.155 33.5837 151.408 35.0815L154.011 38.1185C154.653 37.5683 156.178 37.0182 159.165 36.9352L159.054 32.9368ZM151.408 35.0815C149.742 36.5097 148.917 38.4224 148.917 40.632H152.917C152.917 39.5136 153.288 38.7383 154.011 38.1185L151.408 35.0815ZM148.917 40.632C148.917 42.4682 149.473 44.2246 150.997 45.368L153.398 42.168C153.215 42.0314 152.917 41.6972 152.917 40.632H148.917ZM151.051 45.4065C152.331 46.3025 153.876 46.664 155.525 46.664V42.664C154.444 42.664 153.771 42.4282 153.344 42.1295L151.051 45.4065ZM155.525 46.664C157.992 46.664 160.194 45.9323 162.003 44.397L159.416 41.347C158.409 42.201 157.155 42.664 155.525 42.664V46.664ZM162.03 44.3743C163.95 42.6869 164.822 40.3659 164.822 37.688H160.822C160.822 39.4474 160.285 40.5824 159.389 41.3697L162.03 44.3743ZM164.822 37.688V34.808H160.822V37.688H164.822ZM162.753 32.8092L159.041 32.9372L159.178 36.9348L162.89 36.8068L162.753 32.8092ZM203.111 49.08L201.12 48.8904L201.115 48.9375L201.113 48.9849L203.111 49.08ZM203.43 46.456L205.408 46.7527L205.753 44.456H203.43V46.456ZM203.047 46.456V44.456H201.931L201.345 45.405L203.047 46.456ZM199.335 50.168L200.39 51.8666L200.407 51.8564L200.423 51.8459L199.335 50.168ZM183.59 47.096L182.022 48.3374L182.031 48.3481L183.59 47.096ZM181.607 23.608L179.764 22.8306L179.761 22.8378L179.758 22.845L181.607 23.608ZM186.342 17.464L185.217 15.8108L186.342 17.464ZM199.527 16.888L198.471 18.5866L198.481 18.5928L198.491 18.599L199.527 16.888ZM203.43 20.536L201.774 21.6566L202.369 22.536H203.43V20.536ZM203.686 20.536V22.536H205.349L205.653 20.9012L203.686 20.536ZM204.518 16.056V14.056H202.856L202.552 15.6908L204.518 16.056ZM212.583 16.056H214.583V14.056H212.583V16.056ZM212.583 66.36V68.36H214.583V66.36H212.583ZM203.047 66.36H201.047V68.36H203.047V66.36ZM200.678 43.128L201.788 44.7921L200.678 43.128ZM202.919 40.056L204.81 40.7062L204.813 40.6973L204.816 40.6885L202.919 40.056ZM203.686 34.808L205.686 34.8488L205.686 34.8284V34.808H203.686ZM202.087 25.848L200.35 26.8403L200.359 26.8557L200.368 26.871L202.087 25.848ZM191.335 25.912L193.035 26.9647L193.041 26.9558L193.046 26.9468L191.335 25.912ZM191.335 41.592L189.645 42.6631L189.651 42.6726L189.658 42.682L191.335 41.592ZM205.047 51.704C205.047 50.884 205.067 50.041 205.108 49.1751L201.113 48.9849C201.069 49.911 201.047 50.8174 201.047 51.704H205.047ZM205.101 49.2696C205.184 48.4079 205.286 47.569 205.408 46.7527L201.453 46.1593C201.319 47.0497 201.208 47.9601 201.12 48.8904L205.101 49.2696ZM203.43 44.456H203.047V48.456H203.43V44.456ZM201.345 45.405C200.62 46.5788 199.603 47.6103 198.246 48.4901L200.423 51.8459C202.224 50.6777 203.681 49.2345 204.748 47.507L201.345 45.405ZM198.279 48.4694C197.115 49.1927 195.449 49.64 193.126 49.64V53.64C195.924 53.64 198.397 53.1059 200.39 51.8666L198.279 48.4694ZM193.126 49.64C189.8 49.64 187.198 48.3947 185.15 45.8439L182.031 48.3481C184.847 51.856 188.602 53.64 193.126 53.64V49.64ZM185.159 45.8546C183.118 43.2769 181.943 39.2927 181.943 33.592H177.943C177.943 39.7527 179.199 44.7711 182.022 48.3374L185.159 45.8546ZM181.943 33.592C181.943 29.7963 182.475 26.7461 183.455 24.371L179.758 22.845C178.519 25.8459 177.943 29.4517 177.943 33.592H181.943ZM183.449 24.3854C184.485 21.9305 185.845 20.222 187.468 19.1172L185.217 15.8108C182.829 17.4367 181.032 19.8242 179.764 22.8306L183.449 24.3854ZM187.468 19.1172C189.111 17.9983 191.037 17.416 193.318 17.416V13.416C190.31 13.416 187.584 14.199 185.217 15.8108L187.468 19.1172ZM193.318 17.416C195.641 17.416 197.307 17.8633 198.471 18.5866L200.582 15.1894C198.589 13.9501 196.116 13.416 193.318 13.416V17.416ZM198.491 18.599C199.886 19.4432 200.967 20.4645 201.774 21.6566L205.087 19.4154C203.931 17.7062 202.41 16.2955 200.562 15.177L198.491 18.599ZM203.43 22.536H203.686V18.536H203.43V22.536ZM205.653 20.9012L206.485 16.4212L202.552 15.6908L201.72 20.1708L205.653 20.9012ZM204.518 18.056H212.583V14.056H204.518V18.056ZM210.583 16.056V66.36H214.583V16.056H210.583ZM212.583 64.36H203.047V68.36H212.583V64.36ZM205.047 66.36V51.704H201.047V66.36H205.047ZM196.518 46.152C198.503 46.152 200.324 45.768 201.788 44.7921L199.569 41.4639C198.985 41.8533 198.032 42.152 196.518 42.152V46.152ZM201.788 44.7921C203.237 43.8259 204.224 42.4116 204.81 40.7062L201.027 39.4058C200.675 40.4311 200.168 41.0647 199.569 41.4639L201.788 44.7921ZM204.816 40.6885C205.369 39.0292 205.641 37.0653 205.686 34.8488L201.687 34.7672C201.647 36.732 201.407 38.2668 201.021 39.4235L204.816 40.6885ZM205.686 34.808V33.656H201.686V34.808H205.686ZM205.686 33.656C205.686 30.088 205.138 27.065 203.805 24.825L200.368 26.871C201.168 28.215 201.686 30.3973 201.686 33.656H205.686ZM203.823 24.8557C202.323 22.2302 199.601 21.16 196.391 21.16V25.16C198.727 25.16 199.802 25.8818 200.35 26.8403L203.823 24.8557ZM196.391 21.16C193.476 21.16 191.118 22.4046 189.623 24.8772L193.046 26.9468C193.77 25.7501 194.783 25.16 196.391 25.16V21.16ZM189.634 24.8593C188.242 27.1071 187.671 30.1428 187.671 33.72H191.671C191.671 30.4705 192.208 28.3009 193.035 26.9647L189.634 24.8593ZM187.671 33.72C187.671 37.3656 188.237 40.4417 189.645 42.6631L193.024 40.5209C192.214 39.2436 191.671 37.0717 191.671 33.72H187.671ZM189.658 42.682C191.197 45.0507 193.616 46.152 196.518 46.152V42.152C194.728 42.152 193.69 41.5466 193.011 40.502L189.658 42.682ZM254.618 16.056H256.618V14.056H254.618V16.056ZM254.618 51V53H256.618V51H254.618ZM247.323 51L245.399 51.5494L245.814 53H247.323V51ZM246.042 46.52L247.966 45.9706L247.551 44.52H246.042V46.52ZM245.531 46.52V44.52H244.405L243.821 45.482L245.531 46.52ZM242.715 49.464L243.809 51.1379L243.816 51.1331L243.824 51.1281L242.715 49.464ZM239.003 51.064L238.517 49.1237L238.489 49.1308L238.461 49.1387L239.003 51.064ZM228.251 50.296L229.112 48.491L228.251 50.296ZM223.898 46.136L225.654 45.1783L223.898 46.136ZM222.363 16.056V14.056H220.363V16.056H222.363ZM231.898 16.056H233.898V14.056H231.898V16.056ZM233.242 42.104L234.881 40.9571L233.242 42.104ZM242.074 42.68L240.818 41.1241L240.803 41.1362L240.788 41.1486L242.074 42.68ZM244.379 38.776L242.45 38.2457L242.444 38.2682L242.438 38.2909L244.379 38.776ZM245.083 16.056V14.056H243.083V16.056H245.083ZM252.618 16.056V51H256.618V16.056H252.618ZM254.618 49H247.323V53H254.618V49ZM249.246 50.4506L247.966 45.9706L244.119 47.0694L245.399 51.5494L249.246 50.4506ZM246.042 44.52H245.531V48.52H246.042V44.52ZM243.821 45.482C243.246 46.4291 242.511 47.1958 241.605 47.7999L243.824 51.1281C245.222 50.1962 246.364 49.0003 247.24 47.558L243.821 45.482ZM241.62 47.7901C240.709 48.3858 239.68 48.8332 238.517 49.1237L239.488 53.0043C241.056 52.6122 242.502 51.9928 243.809 51.1379L241.62 47.7901ZM238.461 49.1387C237.276 49.472 236.05 49.64 234.779 49.64V53.64C236.408 53.64 237.998 53.424 239.544 52.9893L238.461 49.1387ZM234.779 49.64C232.546 49.64 230.674 49.2365 229.112 48.491L227.389 52.101C229.582 53.1475 232.062 53.64 234.779 53.64V49.64ZM229.112 48.491C227.626 47.7817 226.483 46.6972 225.654 45.1783L222.143 47.0937C223.362 49.3294 225.121 51.0183 227.389 52.101L229.112 48.491ZM225.654 45.1783C224.842 43.6882 224.363 41.6177 224.363 38.84H220.363C220.363 42.0357 220.908 44.8292 222.143 47.0937L225.654 45.1783ZM224.363 38.84V16.056H220.363V38.84H224.363ZM222.363 18.056H231.898V14.056H222.363V18.056ZM229.898 16.056V36.472H233.898V16.056H229.898ZM229.898 36.472C229.898 39.1359 230.372 41.4904 231.604 43.2509L234.881 40.9571C234.321 40.1576 233.898 38.7574 233.898 36.472H229.898ZM231.604 43.2509C232.97 45.2027 235.103 46.024 237.531 46.024V42.024C236.033 42.024 235.307 41.5653 234.881 40.9571L231.604 43.2509ZM237.531 46.024C239.774 46.024 241.811 45.5132 243.361 44.2114L240.788 41.1486C240.205 41.6388 239.213 42.024 237.531 42.024V46.024ZM243.331 44.2359C244.851 43.0081 245.812 41.2889 246.319 39.2611L242.438 38.2909C242.092 39.6764 241.516 40.5599 240.818 41.1241L243.331 44.2359ZM246.307 39.3063C246.838 37.3736 247.083 35.0926 247.083 32.504H243.083C243.083 34.8648 242.857 36.7651 242.45 38.2457L246.307 39.3063ZM247.083 32.504V16.056H243.083V32.504H247.083ZM245.083 18.056H254.618V14.056H245.083V18.056ZM274.153 16.056H276.153V14.056H274.153V16.056ZM274.153 51V53H276.153V51H274.153ZM264.617 51H262.617V53H264.617V51ZM264.617 16.056V14.056H262.617V16.056H264.617ZM273.065 3.384L271.956 5.0481L271.98 5.06441L272.005 5.08L273.065 3.384ZM273.065 10.68L271.956 9.0159V9.0159L273.065 10.68ZM265.705 10.68L264.563 12.3218L264.579 12.3331L264.596 12.3441L265.705 10.68ZM265.705 3.384L266.798 5.05922L266.806 5.0537L266.814 5.0481L265.705 3.384ZM272.153 16.056V51H276.153V16.056H272.153ZM274.153 49H264.617V53H274.153V49ZM266.617 51V16.056H262.617V51H266.617ZM264.617 18.056H274.153V14.056H264.617V18.056ZM269.417 4.36C270.489 4.36 271.306 4.61484 271.956 5.0481L274.174 1.7199C272.776 0.787827 271.161 0.359997 269.417 0.359997V4.36ZM272.005 5.08C272.194 5.19788 272.601 5.57043 272.601 7.032H276.601C276.601 4.90957 275.984 2.85012 274.125 1.688L272.005 5.08ZM272.601 7.032C272.601 8.41748 272.21 8.84624 271.956 9.0159L274.174 12.3441C275.968 11.1484 276.601 9.14518 276.601 7.032H272.601ZM271.956 9.0159C271.306 9.44916 270.489 9.704 269.417 9.704V13.704C271.161 13.704 272.776 13.2762 274.174 12.3441L271.956 9.0159ZM269.417 9.704C268.289 9.704 267.455 9.44274 266.814 9.0159L264.596 12.3441C266.003 13.2826 267.643 13.704 269.417 13.704V9.704ZM266.847 9.03819C266.622 8.88169 266.233 8.44855 266.233 7.032H262.233C262.233 9.11412 262.825 11.113 264.563 12.3218L266.847 9.03819ZM266.233 7.032C266.233 5.53848 266.639 5.16282 266.798 5.05922L264.612 1.70878C262.809 2.88518 262.233 4.94152 262.233 7.032H266.233ZM266.814 5.0481C267.455 4.62126 268.289 4.36 269.417 4.36V0.359997C267.643 0.359997 266.003 0.781404 264.596 1.7199L266.814 5.0481Z" fill="white" mask="url(#path-1-outside-1_20_89)"/>
</svg>
